<svg width="30" height="30" viewBox="0 0 30 30" fill="none" xmlns="http://www.w3.org/2000/svg">
<path fill-rule="evenodd" clip-rule="evenodd" d="M13.7675 6C13.9825 5.71875 14.3725 5.3125 15 5.3125C15.6275 5.3125 16.0175 5.71875 16.2325 6C16.4388 6.2675 16.645 6.63875 16.8575 7.02L17.0088 7.2925L17.08 7.4175L17.2038 7.44625L17.5013 7.51375C17.91 7.60625 18.3175 7.6975 18.63 7.82125C18.975 7.9575 19.4425 8.22125 19.6238 8.8025C19.8013 9.37125 19.5775 9.85375 19.3825 10.165C19.2013 10.4525 18.9263 10.7725 18.645 11.1012L18.445 11.3362L18.3425 11.4575C18.345 11.5025 18.3513 11.555 18.3575 11.6262L18.3875 11.9387C18.43 12.3775 18.4713 12.8025 18.4563 13.1425C18.4413 13.5 18.3563 14.04 17.8713 14.4062C17.3713 14.7862 16.8213 14.7037 16.4713 14.6025C16.1488 14.5112 15.7675 14.335 15.3838 14.1587L15.1063 14.03L15 13.9812L14.8938 14.0312L14.615 14.1587C14.2325 14.335 13.8513 14.5112 13.5288 14.6025C13.1788 14.7025 12.6288 14.7862 12.1288 14.4062C11.645 14.04 11.5588 13.5 11.5438 13.1437C11.5288 12.8025 11.5688 12.3775 11.6125 11.9375L11.6425 11.625L11.6588 11.4575L11.555 11.3362L11.355 11.1012C11.0738 10.7725 10.7988 10.4512 10.6175 10.1637C10.4225 9.85375 10.1988 9.37125 10.3763 8.80125C10.5563 8.2225 11.025 7.9575 11.37 7.82125C11.6825 7.6975 12.09 7.60625 12.4988 7.51375L12.7963 7.44625L12.9213 7.4175L12.9913 7.2925L13.1425 7.02C13.355 6.63875 13.5613 6.2675 13.7675 6ZM15 7.5425C14.9284 7.6675 14.8455 7.815 14.7513 7.985L14.6288 8.205L14.6 8.255C14.5025 8.435 14.34 8.7325 14.0688 8.93875C13.7925 9.14875 13.4588 9.22125 13.265 9.26375L13.21 9.275L12.9725 9.32875C12.7525 9.37875 12.5738 9.41875 12.4225 9.4575C12.5213 9.57875 12.65 9.73125 12.8175 9.9275L12.98 10.1175L13.0175 10.16C13.1525 10.3162 13.37 10.5662 13.4713 10.8912C13.5713 11.2112 13.5363 11.5412 13.515 11.7487L13.5088 11.8075L13.4838 12.0612C13.4645 12.2528 13.447 12.4444 13.4313 12.6362C13.5625 12.5787 13.71 12.5112 13.8863 12.43L14.11 12.3275L14.16 12.3025C14.34 12.2187 14.6513 12.0712 15 12.0712C15.3488 12.0712 15.66 12.2188 15.84 12.3038L15.89 12.3275L16.1138 12.43C16.288 12.5108 16.4396 12.5796 16.5688 12.6362C16.5531 12.4444 16.5356 12.2528 16.5163 12.0612L16.4913 11.8075L16.485 11.7487C16.4638 11.54 16.4288 11.2112 16.5288 10.8912C16.6288 10.5662 16.8475 10.3162 16.9825 10.16L17.02 10.1175L17.1825 9.9275C17.35 9.73125 17.4788 9.57875 17.5775 9.4575C17.4263 9.42 17.2475 9.37875 17.0275 9.32875L16.79 9.275L16.735 9.2625C16.5413 9.22125 16.2075 9.14875 15.9313 8.9375C15.66 8.7325 15.4975 8.435 15.4 8.25625L15.3713 8.205L15.2488 7.985C15.1555 7.815 15.0725 7.6675 15 7.5425Z" fill="white"/>
<path fill-rule="evenodd" clip-rule="evenodd" d="M9.3725 2.00874C11.2326 1.7031 13.115 1.55382 15 1.56249C17.285 1.56249 19.1738 1.76374 20.6275 2.00874L20.7962 2.03749C22.0587 2.24874 23.1087 2.42499 23.9287 3.43499C24.455 4.08374 24.625 4.78499 24.6638 5.56624L25.2787 5.77124C25.8575 5.96374 26.3662 6.13374 26.7675 6.32124C27.2025 6.52374 27.6013 6.78374 27.9062 7.20749C28.2113 7.63124 28.3325 8.09124 28.3875 8.56749C28.4375 9.00874 28.4375 9.54249 28.4375 10.155V10.335C28.4375 10.8375 28.4375 11.2812 28.4 11.6525C28.36 12.0537 28.2712 12.445 28.05 12.8225C27.8263 13.2012 27.5275 13.4687 27.1963 13.6987C26.89 13.9112 26.5025 14.1275 26.0625 14.3712L22.7625 16.205C22.0875 17.5312 21.1625 18.7137 19.8875 19.5675C18.7938 20.3012 17.485 20.7662 15.9375 20.8987V23.4375H17.725C18.2307 23.4375 18.7208 23.6128 19.1119 23.9334C19.503 24.2541 19.7709 24.7003 19.87 25.1962L20.1437 26.5625H22.5C22.7486 26.5625 22.9871 26.6613 23.1629 26.8371C23.3387 27.0129 23.4375 27.2514 23.4375 27.5C23.4375 27.7486 23.3387 27.9871 23.1629 28.1629C22.9871 28.3387 22.7486 28.4375 22.5 28.4375H7.5C7.25136 28.4375 7.0129 28.3387 6.83709 28.1629C6.66127 27.9871 6.5625 27.7486 6.5625 27.5C6.5625 27.2514 6.66127 27.0129 6.83709 26.8371C7.0129 26.6613 7.25136 26.5625 7.5 26.5625H9.85625L10.13 25.1962C10.2291 24.7003 10.497 24.2541 10.8881 23.9334C11.2792 23.6128 11.7693 23.4375 12.275 23.4375H14.0625V20.8987C12.515 20.7662 11.2063 20.3012 10.1125 19.5687C8.83875 18.7137 7.9125 17.5312 7.2375 16.205L3.9375 14.3712C3.54905 14.1653 3.1707 13.9409 2.80375 13.6987C2.45757 13.4747 2.16622 13.1756 1.95125 12.8237C1.74775 12.4646 1.6277 12.0643 1.6 11.6525C1.5625 11.2812 1.5625 10.8375 1.5625 10.335V10.1537C1.5625 9.54374 1.5625 9.00874 1.6125 8.56749C1.6675 8.09124 1.7875 7.62999 2.09375 7.20749C2.39875 6.78374 2.7975 6.52374 3.23125 6.31999C3.635 6.13249 4.1425 5.96374 4.72125 5.77124L5.33625 5.56624C5.375 4.78374 5.545 4.08374 6.07125 3.43499C6.8925 2.42374 7.94125 2.24749 9.205 2.03749L9.3725 2.00874ZM11.7688 26.5625H18.2313L18.0312 25.5637C18.0171 25.4929 17.9789 25.4292 17.923 25.3834C17.8672 25.3376 17.7972 25.3125 17.725 25.3125H12.275C12.2028 25.3125 12.1328 25.3376 12.077 25.3834C12.0211 25.4292 11.9829 25.4929 11.9688 25.5637L11.7688 26.5625ZM5.3775 7.52874L5.36 7.53499C4.7225 7.74749 4.3175 7.88499 4.0225 8.02124C3.75125 8.14624 3.66375 8.23499 3.615 8.30374C3.56625 8.37249 3.51 8.48249 3.47625 8.77999C3.43875 9.10249 3.4375 9.52999 3.4375 10.2025V10.2937C3.4375 10.85 3.4375 11.1987 3.465 11.4662C3.49 11.7112 3.53 11.81 3.5675 11.8725C3.60375 11.935 3.67 12.0175 3.8725 12.1587C4.0925 12.3112 4.3975 12.4812 4.885 12.7525L6.21625 13.4925C5.68125 11.53 5.46625 9.42999 5.37875 7.52999M23.785 13.4925C24.32 11.53 24.535 9.42999 24.6237 7.52999L24.6412 7.53624C25.2787 7.74874 25.6838 7.88624 25.9788 8.02249C26.25 8.14749 26.3375 8.23624 26.3862 8.30499C26.435 8.37374 26.4912 8.48374 26.525 8.78124C26.5625 9.10374 26.5637 9.53124 26.5637 10.2037V10.295C26.5637 10.8512 26.5637 11.2 26.5363 11.4675C26.5112 11.7125 26.4712 11.8112 26.4338 11.8737C26.3975 11.9362 26.3312 12.0187 26.1287 12.16C25.9075 12.3125 25.6038 12.4825 25.1163 12.7537L23.785 13.4925ZM15 3.43749C12.825 3.43749 11.0413 3.62874 9.685 3.85749C8.17625 4.11249 7.86 4.20749 7.5275 4.61749C7.2 5.01999 7.16875 5.40249 7.235 7.09624C7.3475 9.91874 7.72 12.9662 8.8725 15.2837C9.4425 16.4262 10.1875 17.3612 11.1575 18.0112C12.12 18.6575 13.3638 19.0625 15 19.0625C16.6375 19.0625 17.88 18.6575 18.8438 18.0112C19.8137 17.3612 20.5575 16.4262 21.1262 15.2825C22.28 12.9662 22.6525 9.91999 22.7638 7.09499C22.8325 5.40249 22.8013 5.01999 22.4738 4.61749C22.1413 4.20749 21.8238 4.11249 20.315 3.85749C18.5581 3.56989 16.7803 3.4294 15 3.43749Z" fill="white"/>
</svg>
