<svg width="20" height="20" viewBox="0 0 20 20" fill="none" xmlns="http://www.w3.org/2000/svg">
<g clip-path="url(#clip0_3178_10771)">
<path d="M19.9616 8.19874L16.9252 1.53293C16.8558 1.38054 16.7038 1.28271 16.5363 1.28271H3.46365C3.29618 1.28271 3.14417 1.38054 3.07472 1.53293L0.038441 8.19874C-0.0342941 8.35848 -0.00198636 8.54643 0.119894 8.67271L9.69254 18.5881C9.85246 18.7606 10.1475 18.7606 10.3075 18.5881L19.8801 8.67271C20.002 8.54643 20.0343 8.35844 19.9616 8.19874ZM7.32165 8.80327H12.6783L9.99998 16.9265L7.32165 8.80327ZM12.5837 7.94857H7.4163L9.99998 2.68054L12.5837 7.94857ZM1.0916 7.94853L3.4778 2.70989L6.04541 7.94853H1.0916ZM13.9546 7.94853L16.5222 2.70989L18.9084 7.94853H13.9546Z" fill="#FCC211"/>
</g>
<defs>
<clipPath id="clip0_3178_10771">
<rect width="20" height="20" fill="white"/>
</clipPath>
</defs>
</svg>
