<svg width="54" height="54" viewBox="0 0 54 54" fill="none" xmlns="http://www.w3.org/2000/svg">
<path d="M8.20827 45.4675H7.56027C7.31727 45.4675 7.15527 45.6295 7.15527 45.8725C7.15527 46.1155 7.31727 46.2775 7.56027 46.2775H8.20827C8.45127 46.2775 8.61327 46.1155 8.61327 45.8725C8.61327 45.6295 8.45127 45.4675 8.20827 45.4675Z" fill="white"/>
<path d="M46.4424 45.4675H45.3894C45.1464 45.4675 44.9844 45.6295 44.9844 45.8725C44.9844 46.1155 45.1464 46.2775 45.3894 46.2775H46.4424C46.6854 46.2775 46.8474 46.1155 46.8474 45.8725C46.8474 45.6295 46.6449 45.4675 46.4424 45.4675Z" fill="white"/>
<path d="M45.8344 42.519C45.8344 42.3165 45.6724 42.1545 45.4699 42.1545H31.8214C31.7809 42.762 31.2544 43.2075 30.6469 43.2075H23.1949C22.5874 43.2075 22.1014 42.762 22.0204 42.1545H8.53393C8.45293 42.1545 8.33143 42.195 8.29093 42.276C8.20993 42.357 8.16943 42.438 8.16943 42.519C8.16943 43.734 8.77693 44.8275 9.66793 45.516C9.54643 45.597 9.46543 45.7185 9.46543 45.84C9.46543 46.083 9.62743 46.245 9.87043 46.245H43.7284C43.9714 46.245 44.1334 46.083 44.1334 45.84C44.1334 45.759 44.0929 45.678 44.0524 45.6375C44.2549 45.516 44.4574 45.354 44.6599 45.1515C45.3889 44.5035 45.8344 43.572 45.8344 42.519Z" fill="white"/>
<path d="M22.1806 34.2164C21.7351 34.2164 21.3706 34.5809 21.3706 35.0264V36.9299C21.3706 37.3349 21.6946 37.6994 22.1401 37.6994H30.8476C31.2526 37.6994 31.6171 37.3754 31.6171 36.9299V35.0264C31.6171 34.5809 31.2526 34.2164 30.8071 34.2164H22.1806Z" fill="white"/>
<path d="M43.7669 20.2788C43.7669 19.5093 43.1189 18.8613 42.3494 18.8613H39.7979V21.0078H41.4179V39.5973H12.5819V21.0078H14.2019L12.0149 18.8613H11.6909C11.5694 18.8613 11.4074 18.9018 11.2859 18.9423C10.6784 19.1043 10.2734 19.6713 10.2734 20.2788V41.3388H43.8074V20.2788H43.7669Z" fill="white"/>
<path d="M24.0828 29.517C24.1638 29.598 24.2448 29.6385 24.3258 29.679L15.4968 15.261C14.9703 14.4105 15.2538 13.2765 16.1043 12.75L21.6528 9.3885L20.8023 8.5785C20.3973 8.1735 19.7493 8.214 19.3848 8.5785L11.8923 16.2735C11.4873 16.6785 11.5278 17.286 11.8923 17.691L24.0828 29.517ZM13.7958 15.99C13.7958 15.99 14.5248 15.828 15.1323 15.9495C15.2133 15.9495 15.2538 15.99 15.3348 15.99C15.5373 16.071 15.7398 16.152 15.8613 16.314C16.1043 16.5975 16.1043 17.043 15.8208 17.3265C15.7398 17.4075 15.6588 17.448 15.5778 17.448L16.3473 18.2985L15.8613 18.744L15.0513 17.8935C15.0108 17.9745 14.9703 18.0555 14.8893 18.1365C14.6058 18.3795 14.1603 18.3795 13.9173 18.096C13.7958 17.934 13.7148 17.7315 13.6338 17.529C13.6338 17.448 13.5933 17.4075 13.5933 17.3265C13.5933 16.638 13.7958 15.99 13.7958 15.99Z" fill="white"/>
<path d="M16.1874 14.8539L24.7329 28.8264L20.2779 13.2339C19.9944 12.2619 20.5614 11.2494 21.5334 11.0064L27.6894 9.26489L27.0819 8.25239C26.7984 7.76639 26.1504 7.64489 25.7049 7.92839L16.5519 13.4364C16.0659 13.7604 15.9039 14.3679 16.1874 14.8539ZM18.6174 13.8414L20.6424 14.5299L20.2779 16.6359L18.2529 15.9474L18.6174 13.8414Z" fill="white"/>
<path d="M21.0852 12.9927L25.4997 28.4637V12.1017C25.4997 11.0892 26.3097 10.2792 27.3222 10.2792H33.5187L33.3162 9.55024C33.1542 9.02374 32.5872 8.69974 32.0607 8.86174L21.7737 11.7777C21.2067 11.8992 20.9232 12.4662 21.0852 12.9927ZM22.9887 12.9927C23.2317 12.9117 23.5152 12.9927 23.7177 13.1547C23.7987 12.9117 23.9607 12.7092 24.2442 12.6282C24.6492 12.5067 25.0542 12.7497 25.1757 13.1547C25.2567 13.3572 25.2162 13.6002 25.1757 13.8432C25.1757 13.9242 25.1352 14.0052 25.0947 14.0457C24.8517 14.6937 24.3657 15.2607 24.3657 15.2607C24.3657 15.2607 23.5962 15.0582 23.0292 14.6532C22.9482 14.6127 22.9077 14.5722 22.8672 14.4912C22.7052 14.3292 22.5837 14.1672 22.5027 13.9647C22.3407 13.5597 22.5837 13.1142 22.9887 12.9927Z" fill="white"/>
<path d="M26.2705 12.1032V29.0727C26.2705 29.6397 26.716 30.0852 27.283 30.0852H37.975C38.542 30.0852 38.9875 29.6397 38.9875 29.0727V12.1032C38.9875 11.5362 38.542 11.0907 37.975 11.0907H27.283C26.716 11.0907 26.2705 11.5362 26.2705 12.1032ZM36.3145 25.6707C36.76 25.6707 37.084 26.0352 37.084 26.4402C37.084 26.6427 37.003 26.8047 36.8815 26.9262H37.003C37.408 26.9262 37.6915 27.2502 37.6915 27.6552C37.6915 28.0602 37.3675 28.3437 36.9625 28.3437C36.8005 28.3437 36.679 28.3032 36.5575 28.2222L36.679 28.7892L35.788 28.7487L35.95 28.1817C35.8285 28.2627 35.707 28.3032 35.545 28.3032C35.14 28.3032 34.8565 27.9792 34.8565 27.5742C34.8565 27.1692 35.1805 26.8857 35.5855 26.8857H35.707C35.5855 26.7642 35.545 26.5617 35.545 26.3997C35.545 25.9947 35.9095 25.6707 36.3145 25.6707ZM32.7505 17.2062C33.682 17.2467 34.411 17.9757 34.3705 18.9072C34.3705 19.3122 34.2085 19.7172 33.925 20.0007H34.168C35.0185 20.0412 35.6665 20.7297 35.6665 21.5397C35.626 22.3902 34.9375 23.0382 34.1275 23.0382C33.8035 23.0382 33.52 22.9167 33.277 22.7547L33.5605 24.0102L31.657 23.9697L31.981 22.7142C31.738 22.8762 31.414 22.9977 31.09 22.9572C30.2395 22.9167 29.5915 22.2282 29.5915 21.4182C29.632 20.5677 30.3205 19.9197 31.1305 19.9197C31.2115 19.9197 31.2925 19.9197 31.3735 19.9602C31.1305 19.6767 30.9685 19.2717 31.009 18.8667C31.0495 17.8947 31.819 17.1657 32.7505 17.2062ZM28.336 13.6017H28.4575C28.336 13.4802 28.2955 13.2777 28.2955 13.1157C28.2955 12.6702 28.66 12.3462 29.065 12.3462C29.5105 12.3462 29.8345 12.7107 29.8345 13.1157C29.8345 13.3182 29.7535 13.4802 29.632 13.6017H29.7535C30.1585 13.6017 30.442 13.9257 30.442 14.3307C30.442 14.7357 30.118 15.0192 29.713 15.0192C29.551 15.0192 29.4295 14.9787 29.308 14.8977L29.4295 15.4647L28.5385 15.4242L28.7005 14.8572C28.579 14.9382 28.4575 14.9787 28.2955 14.9787C27.8905 14.9787 27.607 14.6547 27.607 14.2497C27.607 13.8852 27.931 13.6017 28.336 13.6017Z" fill="white"/>
</svg>
