<svg width="30" height="30" viewBox="0 0 30 30" fill="none" xmlns="http://www.w3.org/2000/svg">
<path d="M13.5628 8.04334V26.7186C13.5628 27.0998 13.7143 27.4655 13.9839 27.735C14.2535 28.0046 14.6191 28.1561 15.0003 28.1561C15.3816 28.1561 15.7472 28.0046 16.0168 27.735C16.2864 27.4655 16.4378 27.0998 16.4378 26.7186V8.04327L23.1945 14.9142L23.1945 14.9142C23.3269 15.0488 23.4845 15.156 23.6583 15.2297C23.8321 15.3034 24.0188 15.3421 24.2075 15.3436C24.3963 15.3452 24.5836 15.3096 24.7586 15.2387C24.9336 15.1679 25.0929 15.0634 25.2275 14.931C25.3621 14.7986 25.4693 14.641 25.543 14.4672C25.6167 14.2933 25.6554 14.1067 25.657 13.9179C25.6585 13.7292 25.6229 13.5419 25.5521 13.3669C25.4813 13.1919 25.3767 13.0326 25.2443 12.898C25.2443 12.898 25.2443 12.898 25.2443 12.8979L16.0435 3.54223C15.9132 3.40477 15.757 3.29441 15.5838 3.21751C15.4088 3.13976 15.22 3.09778 15.0285 3.09403C14.837 3.09028 14.6466 3.12484 14.4687 3.19567C14.2907 3.26651 14.1287 3.3722 13.9922 3.50653L13.9922 3.50652L13.9893 3.50939L13.9768 3.52189L13.9768 3.52188L13.9738 3.52487L4.75633 12.898L4.75629 12.898C4.48895 13.17 4.34057 13.5369 4.3438 13.9183C4.3454 14.1071 4.38418 14.2937 4.45791 14.4676C4.53165 14.6414 4.6389 14.799 4.77354 14.9314L4.77354 14.9314C4.90819 15.0637 5.06758 15.1683 5.24263 15.2391C5.41769 15.3099 5.60497 15.3455 5.79378 15.3439C5.98259 15.3423 6.16924 15.3035 6.34307 15.2297C6.5169 15.156 6.6745 15.0488 6.80687 14.9141L13.5628 8.04334Z" fill="#5BA8B3" stroke="#5BA8B3"/>
</svg>
