<svg width="33" height="32" viewBox="0 0 33 32" fill="none" xmlns="http://www.w3.org/2000/svg">
<rect x="0.5" width="32" height="32" rx="16" fill="#5BA8B3"/>
<path d="M20 9H18.1625C16.15 9 14.8375 10.3125 14.8375 12.4562V14.0312H13C12.825 14.0312 12.6937 14.1625 12.6937 14.3375V16.6125C12.6937 16.7875 12.825 16.9188 13 16.9188H14.8375V22.6937C14.8375 22.8687 14.9687 23 15.1 23H17.5062C17.6375 23 17.7687 22.8687 17.7687 22.6937V16.9188H19.9125C20.0875 16.9188 20.2187 16.7875 20.2187 16.6125V14.3375C20.2187 14.2563 20.1865 14.1784 20.129 14.1209C20.0716 14.0635 19.9937 14.0312 19.9125 14.0312H17.7687V12.7188C17.7687 12.0625 17.9437 11.7125 18.775 11.7125H20C20.175 11.7125 20.2625 11.5812 20.2625 11.4062V9.30625C20.2625 9.13125 20.175 9 20 9Z" fill="white"/>
</svg>
