<svg width="14" height="15" viewBox="0 0 14 15" fill="none" xmlns="http://www.w3.org/2000/svg">
<path d="M13.2486 4.01195C13.4138 4.17739 13.5066 4.40166 13.5066 4.63548C13.5066 4.86931 13.4138 5.09357 13.2486 5.25901L7.36623 11.1414C7.20079 11.3066 6.97652 11.3994 6.7427 11.3994C6.50887 11.3994 6.28461 11.3066 6.11917 11.1414L0.236815 5.25901C0.0809558 5.09175 -0.00389573 4.87052 0.000137466 4.64193C0.00417066 4.41334 0.096774 4.19524 0.258436 4.03358C0.420099 3.87191 0.638198 3.77931 0.866788 3.77528C1.09538 3.77124 1.31661 3.85609 1.48387 4.01195L6.7427 9.2693L12.0015 4.01195C12.167 3.84672 12.3912 3.75391 12.625 3.75391C12.8589 3.75391 13.0831 3.84672 13.2486 4.01195Z" fill="white"/>
</svg>
