<svg width="14" height="15" viewBox="0 0 14 15" fill="none" xmlns="http://www.w3.org/2000/svg">
<path d="M13.2486 11.4959C13.4138 11.3304 13.5066 11.1062 13.5066 10.8723C13.5066 10.6385 13.4138 10.4142 13.2486 10.2488L7.36623 4.36645C7.20079 4.20121 6.97652 4.1084 6.7427 4.1084C6.50887 4.1084 6.28461 4.20121 6.11917 4.36645L0.236815 10.2488C0.0809558 10.4161 -0.00389573 10.6373 0.000137466 10.8659C0.00417066 11.0945 0.096774 11.3126 0.258436 11.4742C0.420099 11.6359 0.638198 11.7285 0.866788 11.7325C1.09538 11.7366 1.31661 11.6517 1.48387 11.4959L6.7427 6.23851L12.0015 11.4959C12.167 11.6611 12.3912 11.7539 12.625 11.7539C12.8589 11.7539 13.0831 11.6611 13.2486 11.4959Z" fill="#41B15B"/>
</svg>
