<svg width="33" height="32" viewBox="0 0 33 32" fill="none" xmlns="http://www.w3.org/2000/svg">
<rect x="0.5" width="32" height="32" rx="16" fill="#5BA8B3"/>
<g clip-path="url(#clip0_207_117)">
<path d="M18.8164 15.9999C18.8164 16.458 18.6806 16.9058 18.4261 17.2867C18.1715 17.6677 17.8098 17.9645 17.3865 18.1399C16.9633 18.3152 16.4976 18.361 16.0482 18.2717C15.5989 18.1823 15.1862 17.9617 14.8623 17.6377C14.5383 17.3138 14.3177 16.9011 14.2283 16.4518C14.139 16.0025 14.1848 15.5367 14.3602 15.1135C14.5355 14.6902 14.8324 14.3285 15.2133 14.074C15.5942 13.8194 16.042 13.6836 16.5001 13.6836C17.1144 13.6837 17.7035 13.9277 18.1379 14.3621C18.5723 14.7965 18.8163 15.3856 18.8164 15.9999Z" fill="white"/>
<path d="M20.4118 9H12.5882C11.7694 9.00087 10.9844 9.32651 10.4055 9.90547C9.82651 10.4844 9.50087 11.2694 9.5 12.0882V19.9118C9.50087 20.7306 9.82651 21.5156 10.4055 22.0945C10.9844 22.6735 11.7694 22.9991 12.5882 23H20.4118C21.2306 22.9991 22.0156 22.6735 22.5945 22.0945C23.1735 21.5156 23.4991 20.7306 23.5 19.9118V12.0882C23.4991 11.2694 23.1735 10.4844 22.5945 9.90547C22.0156 9.32651 21.2306 9.00087 20.4118 9V9ZM16.5 19.8604C14.3713 19.8604 12.6396 18.1287 12.6396 16C12.6396 13.8713 14.3713 12.1396 16.5 12.1396C18.6287 12.1396 20.3604 13.8713 20.3604 16C20.3604 18.1287 18.6287 19.8604 16.5 19.8604ZM20.9264 12.3455C20.7737 12.3455 20.6244 12.3002 20.4974 12.2154C20.3704 12.1305 20.2714 12.0099 20.213 11.8688C20.1545 11.7276 20.1393 11.5724 20.1691 11.4226C20.1989 11.2728 20.2725 11.1352 20.3805 11.0272C20.4885 10.9192 20.6261 10.8457 20.7759 10.8159C20.9257 10.7862 21.081 10.8015 21.2221 10.86C21.3632 10.9185 21.4838 11.0175 21.5686 11.1445C21.6534 11.2715 21.6986 11.4209 21.6986 11.5736C21.6986 11.675 21.6786 11.7754 21.6398 11.8691C21.601 11.9627 21.5441 12.0478 21.4724 12.1195C21.4007 12.1912 21.3156 12.2481 21.2219 12.2868C21.1282 12.3256 21.0278 12.3455 20.9264 12.3455Z" fill="white"/>
</g>
<defs>
<clipPath id="clip0_207_117">
<rect width="14" height="14" fill="white" transform="translate(9.5 9)"/>
</clipPath>
</defs>
</svg>
