<svg width="15" height="15" viewBox="0 0 15 15" fill="none" xmlns="http://www.w3.org/2000/svg">
<path d="M7.5 15C6.01664 15 4.56659 14.5601 3.33323 13.736C2.09986 12.9119 1.13856 11.7406 0.570907 10.3701C0.0032495 8.99968 -0.145275 7.49168 0.144114 6.03683C0.433503 4.58197 1.14781 3.2456 2.1967 2.1967C3.2456 1.14781 4.58197 0.433503 6.03682 0.144114C7.49168 -0.145275 8.99968 0.00325012 10.3701 0.570907C11.7406 1.13856 12.9119 2.09986 13.736 3.33323C14.5601 4.56659 15 6.01664 15 7.5C14.9977 9.48841 14.2067 11.3947 12.8007 12.8007C11.3947 14.2067 9.48841 14.9977 7.5 15ZM7.5 0.882357C6.19115 0.882357 4.9117 1.27048 3.82343 1.99763C2.73517 2.72479 1.88697 3.75832 1.38609 4.96754C0.88522 6.17675 0.754169 7.50734 1.00951 8.79104C1.26486 10.0747 1.89513 11.2539 2.82062 12.1794C3.74611 13.1049 4.92527 13.7351 6.20896 13.9905C7.49266 14.2458 8.82325 14.1148 10.0325 13.6139C11.2417 13.113 12.2752 12.2648 13.0024 11.1766C13.7295 10.0883 14.1176 8.80885 14.1176 7.5C14.1157 5.74549 13.4179 4.0634 12.1772 2.82277C10.9366 1.58214 9.25451 0.884303 7.5 0.882357ZM10.7529 8.98824C10.8356 8.90552 10.882 8.79338 10.882 8.67647C10.882 8.55956 10.8356 8.44743 10.7529 8.36471L7.81177 5.42353C7.72905 5.34091 7.61691 5.29451 7.5 5.29451C7.38309 5.29451 7.27096 5.34091 7.18824 5.42353L4.24706 8.36471C4.16913 8.44834 4.12671 8.55896 4.12872 8.67325C4.13074 8.78754 4.17704 8.8966 4.25787 8.97743C4.3387 9.05826 4.44775 9.10456 4.56205 9.10658C4.67634 9.10859 4.78696 9.06617 4.87059 8.98824L7.5 6.35956L10.1294 8.98824C10.2121 9.07085 10.3243 9.11726 10.4412 9.11726C10.5581 9.11726 10.6702 9.07085 10.7529 8.98824Z" fill="white"/>
</svg>
